<svg width="112" height="30" viewBox="0 0 112 30" fill="none" xmlns="http://www.w3.org/2000/svg">
<rect x="1" y="1" width="110" height="28" stroke="#FFF8F8" stroke-width="2"/>
<path d="M15.248 18.24C14.504 18.24 13.848 18.06 13.28 17.7C12.72 17.34 12.288 16.852 11.984 16.236C11.68 15.612 11.528 14.92 11.528 14.16C11.528 13.376 11.692 12.652 12.02 11.988C12.356 11.324 12.808 10.8 13.376 10.416C13.952 10.032 14.576 9.84 15.248 9.84C15.888 9.84 16.448 9.932 16.928 10.116C17.416 10.292 17.776 10.52 18.008 10.8C18.144 10.968 18.228 11.192 18.26 11.472C18.292 11.744 18.308 12.12 18.308 12.6H18.068C17.916 11.824 17.636 11.252 17.228 10.884C16.82 10.508 16.28 10.32 15.608 10.32C14.744 10.32 14.048 10.624 13.52 11.232C12.992 11.84 12.728 12.816 12.728 14.16C12.728 14.792 12.828 15.38 13.028 15.924C13.236 16.468 13.556 16.912 13.988 17.256C14.42 17.592 14.96 17.76 15.608 17.76C16.192 17.76 16.7 17.62 17.132 17.34C17.572 17.06 17.964 16.64 18.308 16.08L18.548 16.26C18.18 16.98 17.724 17.492 17.18 17.796C16.644 18.092 16 18.24 15.248 18.24ZM26.5645 18.24C25.8525 18.24 25.3445 18.068 25.0405 17.724C24.7365 17.372 24.5845 16.864 24.5845 16.2V13.62L22.6045 18H22.3645L20.3245 13.5V18H19.8445V12.36H20.9845L22.7845 16.32L24.5845 12.36H25.6645V16.2C25.6645 16.672 25.7485 17.092 25.9165 17.46C26.0925 17.82 26.3085 18 26.5645 18V18.24ZM29.9534 18.12C29.4094 18.12 28.9374 17.992 28.5374 17.736C28.1374 17.472 27.8334 17.116 27.6254 16.668C27.4174 16.22 27.3134 15.724 27.3134 15.18C27.3134 14.636 27.4174 14.14 27.6254 13.692C27.8334 13.244 28.1374 12.892 28.5374 12.636C28.9374 12.372 29.4094 12.24 29.9534 12.24C30.4974 12.24 30.9694 12.372 31.3694 12.636C31.7694 12.892 32.0734 13.244 32.2814 13.692C32.4894 14.14 32.5934 14.636 32.5934 15.18C32.5934 15.724 32.4894 16.22 32.2814 16.668C32.0734 17.116 31.7694 17.472 31.3694 17.736C30.9694 17.992 30.4974 18.12 29.9534 18.12ZM29.9534 17.64C30.2494 17.64 30.5094 17.532 30.7334 17.316C30.9654 17.1 31.1414 16.804 31.2614 16.428C31.3894 16.052 31.4534 15.636 31.4534 15.18C31.4534 14.724 31.3894 14.308 31.2614 13.932C31.1414 13.556 30.9654 13.26 30.7334 13.044C30.5094 12.828 30.2494 12.72 29.9534 12.72C29.6574 12.72 29.3934 12.828 29.1614 13.044C28.9374 13.26 28.7614 13.556 28.6334 13.932C28.5134 14.308 28.4534 14.724 28.4534 15.18C28.4534 15.636 28.5134 16.052 28.6334 16.428C28.7614 16.804 28.9374 17.1 29.1614 17.316C29.3934 17.532 29.6574 17.64 29.9534 17.64ZM35.5847 12.84H34.9847C34.6087 12.84 34.3047 12.948 34.0727 13.164C33.8407 13.372 33.7247 13.664 33.7247 14.04H33.4847V13.32C33.4847 12.68 33.7847 12.36 34.3847 12.36H38.6447V12.84H36.6647V18H35.5847V12.84ZM39.8643 13.8C39.8643 13.392 39.8083 13.092 39.6963 12.9C39.5843 12.7 39.3603 12.6 39.0243 12.6H38.7843V12.36H39.8643C40.1683 12.36 40.3963 12.404 40.5483 12.492C40.7083 12.572 40.8203 12.708 40.8843 12.9C41.3243 12.46 41.8843 12.24 42.5643 12.24C43.2523 12.24 43.7843 12.52 44.1603 13.08C44.5363 13.632 44.7243 14.332 44.7243 15.18C44.7243 16.036 44.5283 16.74 44.1363 17.292C43.7523 17.844 43.1883 18.12 42.4443 18.12C42.1403 18.12 41.8723 18.088 41.6403 18.024C41.4083 17.96 41.1763 17.872 40.9443 17.76V20.28H39.8643V13.8ZM42.0843 17.64C42.5963 17.64 42.9723 17.416 43.2123 16.968C43.4603 16.52 43.5843 15.924 43.5843 15.18C43.5843 14.444 43.4683 13.852 43.2363 13.404C43.0043 12.948 42.6603 12.72 42.2043 12.72C41.6683 12.72 41.2483 12.96 40.9443 13.44V17.28C41.1843 17.392 41.3923 17.48 41.5683 17.544C41.7443 17.608 41.9163 17.64 42.0843 17.64ZM48.3373 18.12C47.7933 18.12 47.3333 17.992 46.9573 17.736C46.5813 17.472 46.2973 17.12 46.1053 16.68C45.9133 16.232 45.8173 15.732 45.8173 15.18C45.8173 14.636 45.9133 14.14 46.1053 13.692C46.2973 13.244 46.5733 12.892 46.9333 12.636C47.3013 12.372 47.7293 12.24 48.2173 12.24C49.0253 12.24 49.6253 12.468 50.0173 12.924C50.4173 13.372 50.6173 14.024 50.6173 14.88L50.5933 15.36H46.9573C46.9573 16.032 47.1013 16.58 47.3893 17.004C47.6773 17.428 48.0733 17.64 48.5773 17.64C48.9533 17.64 49.2693 17.56 49.5253 17.4C49.7893 17.24 50.0333 17 50.2573 16.68L50.4973 16.86C50.2333 17.3 49.9253 17.62 49.5733 17.82C49.2213 18.02 48.8093 18.12 48.3373 18.12ZM49.4773 14.88C49.4773 14.176 49.3733 13.64 49.1653 13.272C48.9573 12.904 48.6413 12.72 48.2173 12.72C47.9773 12.72 47.7613 12.816 47.5693 13.008C47.3773 13.192 47.2253 13.448 47.1133 13.776C47.0093 14.104 46.9573 14.472 46.9573 14.88H49.4773ZM53.5847 12.84H52.9847C52.6087 12.84 52.3047 12.948 52.0727 13.164C51.8407 13.372 51.7247 13.664 51.7247 14.04H51.4847V13.32C51.4847 12.68 51.7847 12.36 52.3847 12.36H56.6447V12.84H54.6647V18H53.5847V12.84ZM57.8523 13.8C57.8523 13.392 57.7963 13.092 57.6843 12.9C57.5723 12.7 57.3483 12.6 57.0123 12.6H56.8323V12.36H57.8523C58.1483 12.36 58.3683 12.4 58.5123 12.48C58.6643 12.552 58.7723 12.688 58.8363 12.888C58.9003 13.088 58.9323 13.392 58.9323 13.8V14.64H59.8323C60.5923 14.64 61.1923 14.768 61.6323 15.024C62.0723 15.28 62.2923 15.712 62.2923 16.32C62.2923 16.928 62.0723 17.36 61.6323 17.616C61.1923 17.872 60.5923 18 59.8323 18H57.8523V13.8ZM59.7123 17.58C60.1843 17.58 60.5403 17.48 60.7803 17.28C61.0283 17.08 61.1523 16.76 61.1523 16.32C61.1523 15.88 61.0283 15.56 60.7803 15.36C60.5403 15.16 60.1843 15.06 59.7123 15.06C59.5923 15.06 59.4563 15.072 59.3043 15.096C59.1523 15.12 59.0283 15.148 58.9323 15.18V17.46C59.0283 17.492 59.1523 17.52 59.3043 17.544C59.4563 17.568 59.5923 17.58 59.7123 17.58ZM69.0765 18.12C68.1485 18.088 67.4365 17.804 66.9405 17.268C66.4445 16.724 66.1965 16.028 66.1965 15.18C66.1965 14.332 66.4445 13.64 66.9405 13.104C67.4365 12.56 68.1485 12.272 69.0765 12.24V11.52C69.0765 11.112 69.0205 10.812 68.9085 10.62C68.7965 10.42 68.5725 10.32 68.2365 10.32H68.0565V10.08H69.0765C69.3725 10.08 69.5925 10.12 69.7365 10.2C69.8885 10.272 69.9965 10.408 70.0605 10.608C70.1245 10.808 70.1565 11.112 70.1565 11.52V12.24C71.0845 12.272 71.7965 12.56 72.2925 13.104C72.7885 13.64 73.0365 14.332 73.0365 15.18C73.0365 16.028 72.7885 16.724 72.2925 17.268C71.7965 17.804 71.0845 18.088 70.1565 18.12V20.28H69.0765V18.12ZM69.0885 12.66C68.4965 12.724 68.0565 12.976 67.7685 13.416C67.4805 13.848 67.3365 14.436 67.3365 15.18C67.3365 15.924 67.4805 16.516 67.7685 16.956C68.0565 17.388 68.4965 17.636 69.0885 17.7V12.66ZM70.1445 17.7C70.7365 17.636 71.1765 17.388 71.4645 16.956C71.7525 16.516 71.8965 15.924 71.8965 15.18C71.8965 14.436 71.7525 13.848 71.4645 13.416C71.1765 12.976 70.7365 12.724 70.1445 12.66V17.7ZM74.6218 13.8C74.6218 13.392 74.5658 13.092 74.4538 12.9C74.3418 12.7 74.1178 12.6 73.7818 12.6H73.6018V12.36H74.6218C74.9178 12.36 75.1378 12.4 75.2818 12.48C75.4338 12.552 75.5418 12.688 75.6058 12.888C75.6698 13.088 75.7018 13.392 75.7018 13.8V16.92L78.2218 12.36H79.3018V18H78.2218V13.44L75.7018 18H74.6218V13.8ZM80.8601 18.12C80.7961 18.12 80.6961 18.108 80.5601 18.084C80.4321 18.06 80.3361 18.036 80.2721 18.012V17.712C80.7361 17.712 81.1121 17.436 81.4001 16.884C81.6881 16.332 81.8321 15.304 81.8321 13.8C81.8321 13.392 81.7721 13.092 81.6521 12.9C81.5401 12.7 81.3161 12.6 80.9801 12.6V12.36H85.8521V18H84.7721V12.84H82.6601V13.8C82.6601 15.44 82.4921 16.572 82.1561 17.196C81.8281 17.812 81.3961 18.12 80.8601 18.12ZM87.7468 13.8C87.7468 13.392 87.6908 13.092 87.5788 12.9C87.4668 12.7 87.2428 12.6 86.9068 12.6H86.7268V12.36H87.7468C88.0428 12.36 88.2628 12.4 88.4068 12.48C88.5588 12.552 88.6668 12.688 88.7308 12.888C88.7948 13.088 88.8268 13.392 88.8268 13.8V14.64H89.7268C90.4868 14.64 91.0868 14.768 91.5268 15.024C91.9668 15.28 92.1868 15.712 92.1868 16.32C92.1868 16.928 91.9668 17.36 91.5268 17.616C91.0868 17.872 90.4868 18 89.7268 18H87.7468V13.8ZM89.6068 17.58C90.0788 17.58 90.4348 17.48 90.6748 17.28C90.9228 17.08 91.0468 16.76 91.0468 16.32C91.0468 15.88 90.9228 15.56 90.6748 15.36C90.4348 15.16 90.0788 15.06 89.6068 15.06C89.4868 15.06 89.3508 15.072 89.1988 15.096C89.0468 15.12 88.9228 15.148 88.8268 15.18V17.46C88.9228 17.492 89.0468 17.52 89.1988 17.544C89.3508 17.568 89.4868 17.58 89.6068 17.58ZM100.123 18.24C99.4111 18.24 98.9031 18.068 98.5991 17.724C98.2951 17.372 98.1431 16.864 98.1431 16.2V13.62L96.1631 18H95.9231L93.8831 13.5V18H93.4031V12.36H94.5431L96.3431 16.32L98.1431 12.36H99.2231V16.2C99.2231 16.672 99.3071 17.092 99.4751 17.46C99.6511 17.82 99.8671 18 100.123 18V18.24Z" fill="white"/>
</svg>
